<svg xmlns="http://www.w3.org/2000/svg" viewBox="0 0 64 64"><g data-name="Layer 4"><path fill="#ffc94e" d="M52.73,25H46V20l-.05-.2a5.439,5.439,0,0,0,2.44-1.41,4.4,4.4,0,0,0,.35-.39A5.456,5.456,0,0,0,50,14.63,5.7,5.7,0,0,0,44.26,9H42.97A4.533,4.533,0,0,0,43,8.48,7.5,7.5,0,0,0,28,8.5a7.485,7.485,0,0,0-7-7.47,6.98,6.98,0,0,0-1.12,0c-.22.02-.44.04-.67.08A7.544,7.544,0,0,0,13,8.48a4.533,4.533,0,0,0,.03.52H10.5A5.5,5.5,0,0,0,5,14.37a5.671,5.671,0,0,0,5.01,5.58L10,20V56.01a3.513,3.513,0,0,0-3,3.46,3.5,3.5,0,0,0,3.5,3.5l35,.03A3.517,3.517,0,0,0,49,59.5a3.5,3.5,0,0,0-3-3.46V49h5.68a6.168,6.168,0,0,0,6.25-5.5l1.05-12A6.116,6.116,0,0,0,52.73,25Zm1.04,18.17A2.078,2.078,0,0,1,51.68,45H46V29h6.73a2.1,2.1,0,0,1,1.54.65,1.912,1.912,0,0,1,.54,1.52Z"/><path fill="#f29c40" d="M49,59.5A3.517,3.517,0,0,1,45.5,63l-35-.03A3.5,3.5,0,0,1,7,59.47a3.513,3.513,0,0,1,3-3.46V20l.01-.05A5.671,5.671,0,0,1,5,14.37,5.5,5.5,0,0,1,10.5,9h1.99V42a14,14,0,0,0,14,14H46v.04A3.5,3.5,0,0,1,49,59.5Z"/><path fill="#f29c40" d="M31 28V48a3 3 0 0 1-6 0V28a3 3 0 0 1 6 0zM21 28V48a3 3 0 0 1-6 0V28a3 3 0 0 1 6 0zM41 28V48a3 3 0 0 1-6 0V28a3 3 0 0 1 6 0z"/><path fill="#e6e6e6" d="M50,14.63A5.456,5.456,0,0,1,48.74,18a4.4,4.4,0,0,1-.35.39,5.439,5.439,0,0,1-2.44,1.41,5.344,5.344,0,0,1-1.45.2H32.83A1.831,1.831,0,0,0,31,21.83a3.337,3.337,0,0,1-.79,2.14,2.872,2.872,0,0,1-1.99,1.02A3,3,0,0,1,25,22v9.83a3.111,3.111,0,0,1-2.78,3.16A3,3,0,0,1,19,32V29.5a2.5,2.5,0,1,1-5,0V21.83A1.831,1.831,0,0,0,12.17,20H10.74a5.835,5.835,0,0,1-.73-.05A5.671,5.671,0,0,1,5,14.37,5.5,5.5,0,0,1,10.5,9h2.53A4.533,4.533,0,0,1,13,8.48a7.544,7.544,0,0,1,6.21-7.37c.23-.04.45-.06.67-.08a6.98,6.98,0,0,1,1.12,0A7.485,7.485,0,0,1,28,8.5a7.5,7.5,0,0,1,15-.02,4.533,4.533,0,0,1-.03.52h1.29A5.7,5.7,0,0,1,50,14.63Z"/><path fill="#b6c1cc" d="M48.74,18a4.4,4.4,0,0,1-.35.39,5.439,5.439,0,0,1-2.44,1.41,5.344,5.344,0,0,1-1.45.2H32.83A1.808,1.808,0,0,0,31,21.792a3.337,3.337,0,0,1-.79,2.178,2.872,2.872,0,0,1-1.99,1.02A3,3,0,0,1,25,22v9.83a3.111,3.111,0,0,1-2.78,3.16A3,3,0,0,1,19,32V29.5a2.5,2.5,0,1,1-5,0V21.83A1.83,1.83,0,0,0,12.17,20H10.74a5.835,5.835,0,0,1-.73-.05A5.671,5.671,0,0,1,5,14.37,5.5,5.5,0,0,1,10.5,9h2.53A4.533,4.533,0,0,1,13,8.48a5.421,5.421,0,0,1,1.255-3.414c3.118-3.806,4.37-3.922,5.625-4.036a6.98,6.98,0,0,1,1.12,0V10a8,8,0,0,0,8,8Z"/></g><g data-name="Layer 3"><g data-name="Layer 1"><path d="M42 57a1 1 0 0 0 0-2l-28-.03h0a1 1 0 0 0 0 2L42 57zM13 29.5a3.48 3.48 0 0 0 1.022 2.477 3.641 3.641 0 0 0 4.029.661 3.97 3.97 0 0 0 1.122 2.189 4.02 4.02 0 0 0 5.259.316A4.27 4.27 0 0 0 26 31.83V25.463a3.984 3.984 0 0 0 2.282.525 3.861 3.861 0 0 0 2.692-1.372A4.325 4.325 0 0 0 32 21.83a.831.831 0 0 1 .83-.83H42a1 1 0 0 0 0-2H32.83A2.834 2.834 0 0 0 30 21.83a2.312 2.312 0 0 1-.548 1.488 1.877 1.877 0 0 1-1.307.675A2 2 0 0 1 26 22a1 1 0 0 0-2 0v9.83a2.123 2.123 0 0 1-1.855 2.163 1.959 1.959 0 0 1-1.558-.58A1.983 1.983 0 0 1 20 32V26a1 1 0 0 0-2 0v3.5a1.5 1.5 0 1 1-3 0V21.83A2.834 2.834 0 0 0 12.17 19H10.74A4.766 4.766 0 0 1 6 14.391 4.543 4.543 0 0 1 10.5 10h2.53a1.009 1.009 0 0 0 .993-1.113 3.674 3.674 0 0 1-.023-.4 6.442 6.442 0 0 1 .856-3.167 1 1 0 0 0-1.732-1A8.438 8.438 0 0 0 12.017 8H10.5A6.616 6.616 0 0 0 4 14.348 6.777 6.777 0 0 0 10.74 21h1.43a.831.831 0 0 1 .83.83z"/><path d="M11 61.97h-.5A2.5 2.5 0 0 1 8 59.47 2.573 2.573 0 0 1 10.144 57 1.058 1.058 0 0 0 11 56.01V24a1 1 0 0 0-2 0V55.242A4.484 4.484 0 0 0 6 59.47a4.5 4.5 0 0 0 4.5 4.5H11A1 1 0 0 0 11 61.97zM25 38a1 1 0 0 0-1 1v9a4 4 0 0 0 8 0V32a1 1 0 0 0-2 0V48a2 2 0 0 1-4 0V39A1 1 0 0 0 25 38zM34 28V48a4 4 0 0 0 8 0V28a4 4 0 0 0-8 0zm6 0V48a2 2 0 0 1-4 0V28a2 2 0 0 1 4 0zM15 35a1 1 0 0 0-1 1V48a4 4 0 0 0 8 0V39a1 1 0 0 0-2 0v9a2 2 0 0 1-4 0V36A1 1 0 0 0 15 35z"/><path d="M58.177,26.364A7.4,7.4,0,0,0,52.73,24H47V20.5a6.42,6.42,0,0,0,2.152-10.42A7.1,7.1,0,0,0,43.984,8,8.5,8.5,0,0,0,28,4.5,8.509,8.509,0,0,0,19.051.123,8.061,8.061,0,0,0,16.3,1.1a1,1,0,1,0,1,1.733A6.08,6.08,0,0,1,19.375,2.1,6.506,6.506,0,0,1,27,8.5a1,1,0,0,0,2,0,6.494,6.494,0,0,1,2.306-4.964,6.619,6.619,0,0,1,9.771,1.65,6.161,6.161,0,0,1,.9,3.7A1.012,1.012,0,0,0,42.97,10h1.29a4.878,4.878,0,0,1,3.462,1.473,4.432,4.432,0,0,1-1.994,7.355A1.114,1.114,0,0,0,45,20v5a1,1,0,0,0,1,1h6.73A5.394,5.394,0,0,1,56.7,27.716a4.81,4.81,0,0,1,1.28,3.7l-1.05,12A5.2,5.2,0,0,1,51.68,48H46a1,1,0,0,0-1,1v7.04a1.06,1.06,0,0,0,.859.99A2.5,2.5,0,0,1,48,59.5,2.516,2.516,0,0,1,45.5,62L19,61.98a1,1,0,0,0,0,2L45.5,64A4.517,4.517,0,0,0,50,59.5a4.516,4.516,0,0,0-3-4.233V50h4.68a7.208,7.208,0,0,0,7.246-6.413l1.051-12A6.79,6.79,0,0,0,58.177,26.364Z"/><path d="M46,46h5.683a3.075,3.075,0,0,0,3.078-2.747l1.046-12a2.93,2.93,0,0,0-.821-2.3A3.111,3.111,0,0,0,52.728,28H46a1,1,0,0,0-1,1V45A1,1,0,0,0,46,46Zm7.545-15.662a.929.929,0,0,1,.269.741l-1.045,12A1.077,1.077,0,0,1,51.683,44H47V30h5.728A1.107,1.107,0,0,1,53.545,30.338Z"/><circle cx="15" cy="63" r="1"/></g></g></svg>