<?xml version="1.0" standalone="no"?>
<!DOCTYPE svg PUBLIC "-//W3C//DTD SVG 20010904//EN"
 "http://www.w3.org/TR/2001/REC-SVG-20010904/DTD/svg10.dtd">
<svg version="1.0" xmlns="http://www.w3.org/2000/svg"
 width="461.000000pt" height="218.000000pt" viewBox="0 0 461.000000 218.000000"
 preserveAspectRatio="xMidYMid meet">
<metadata>
Created by potrace 1.16, written by Peter Selinger 2001-2019
</metadata>
<g transform="translate(0.000000,218.000000) scale(0.100000,-0.100000)"
fill="#000000" stroke="none">
<path d="M39 2141 c-41 -41 -41 -101 0 -142 l29 -29 402 0 402 0 34 34 c48 48
44 105 -10 148 -19 16 -57 18 -424 18 l-404 0 -29 -29z"/>
<path d="M1137 2159 c-48 -28 -47 -10 -47 -920 l0 -851 34 -34 34 -34 160 0
160 0 31 -65 c42 -90 117 -167 207 -212 141 -69 318 -55 447 37 67 48 115 108
148 184 l24 56 566 0 566 0 14 -42 c7 -23 32 -67 55 -99 198 -269 614 -227
755 76 l31 65 118 0 c104 0 120 2 144 21 l26 20 0 481 0 480 -156 224 c-85
123 -165 231 -177 239 -18 13 -74 15 -354 15 l-333 0 0 145 c0 154 -9 193 -49
215 -27 14 -2379 13 -2404 -1z m2243 -914 l0 -725 -519 0 -518 0 -7 31 c-9 45
-52 127 -94 178 -117 143 -345 193 -515 113 -75 -35 -167 -115 -202 -177 -12
-22 -30 -64 -40 -93 l-17 -53 -86 3 -87 3 -3 710 c-1 391 0 716 3 723 3 9 222
12 1045 12 l1040 0 0 -725z m380 128 c0 -126 5 -245 10 -265 6 -20 22 -46 37
-58 25 -19 39 -20 324 -20 l299 0 0 -255 0 -255 -49 0 -49 0 -18 53 c-38 118
-126 215 -241 270 -127 59 -313 45 -419 -31 -21 -15 -45 -31 -51 -36 -10 -6
-13 79 -13 408 l0 416 85 0 85 0 0 -227z m532 52 c68 -97 125 -180 126 -185 2
-6 -79 -10 -222 -10 l-226 0 0 185 0 185 99 0 100 0 123 -175z m-2292 -766
c185 -83 197 -323 22 -426 -39 -23 -59 -28 -112 -28 -138 1 -239 100 -240 236
0 170 176 288 330 218z m2018 -16 c159 -98 145 -336 -24 -419 -62 -30 -157
-26 -216 9 -114 67 -156 204 -98 317 63 121 221 165 338 93z"/>
<path d="M2710 1415 c0 -62 -1 -65 -19 -55 -36 18 -79 12 -112 -18 -27 -24
-33 -37 -37 -85 -5 -69 11 -113 49 -132 36 -19 59 -19 88 1 17 12 26 13 34 5
6 -6 21 -11 34 -11 l23 0 0 180 0 180 -30 0 -30 0 0 -65z m-16 -101 c23 -9 22
-111 -1 -136 -38 -42 -93 -6 -93 62 0 63 40 95 94 74z"/>
<path d="M1660 1295 l0 -175 30 0 30 0 0 121 0 122 96 -122 c75 -96 100 -121
120 -121 l24 0 0 175 0 175 -31 0 -30 0 3 -120 c2 -66 2 -120 1 -120 -1 0 -45
54 -98 120 -76 96 -100 120 -120 120 l-25 0 0 -175z"/>
<path d="M2081 1357 c-62 -31 -86 -132 -46 -193 35 -53 123 -67 182 -28 23 14
24 18 10 31 -11 12 -19 12 -35 4 -48 -26 -112 -2 -112 42 0 15 12 17 80 17
l80 0 0 30 c0 85 -83 136 -159 97z"/>
<path d="M2333 1351 c-41 -26 -53 -49 -53 -106 0 -61 23 -103 67 -122 41 -17
106 -11 138 13 17 13 18 16 3 30 -12 13 -20 14 -36 5 -48 -26 -112 -2 -112 42
0 14 12 17 79 17 55 0 81 4 84 13 7 21 -11 79 -31 100 -29 29 -99 33 -139 8z"/>
<path d="M2830 1345 c0 -24 3 -25 55 -25 30 0 55 -2 55 -5 0 -2 -27 -40 -60
-82 -84 -109 -82 -113 35 -113 88 0 95 2 95 20 0 16 -8 19 -59 22 l-60 3 50
65 c60 78 82 117 74 130 -3 6 -46 10 -96 10 -88 0 -89 0 -89 -25z"/>
<path d="M221 1784 c-30 -21 -51 -71 -44 -107 3 -15 19 -38 35 -52 l30 -25
316 0 c285 0 319 2 338 18 54 43 58 100 10 148 l-34 34 -314 0 c-274 0 -317
-2 -337 -16z"/>
<path d="M421 1404 c-38 -32 -49 -80 -27 -122 9 -17 25 -36 35 -42 12 -6 105
-10 231 -10 126 0 219 4 231 10 10 6 26 25 35 42 22 42 11 90 -27 122 l-31 26
-208 0 -208 0 -31 -26z"/>
<path d="M668 1045 c-29 -16 -58 -62 -58 -90 0 -32 32 -77 65 -91 19 -8 64
-14 100 -14 36 0 81 6 100 14 67 28 83 116 29 167 -23 21 -36 24 -117 27 -68
2 -99 -2 -119 -13z"/>
</g>
</svg>
