<svg xmlns="http://www.w3.org/2000/svg" xmlns:xlink="http://www.w3.org/1999/xlink" version="1.1" width="940" height="788" viewBox="0 0 940 788" xml:space="preserve">
<desc>Created with Fabric.js 3.5.0</desc>
<defs>
</defs>
<rect x="0" y="0" width="100%" height="100%" fill="#ffffff"/>
<g transform="matrix(3.618 0 0 4.2469 386.2249 290.0994)" id="813997">
<g style="" vector-effect="non-scaling-stroke">
		<g transform="matrix(1 0 0 1 0 -24)" id="can">
<ellipse style="stroke: rgb(0,0,0); stroke-width: 2; stroke-dasharray: none; stroke-linecap: round; stroke-dashoffset: 0; stroke-linejoin: round; stroke-miterlimit: 4; is-custom-font: none; font-file-url: none; fill: none; fill-rule: nonzero; opacity: 1;" cx="0" cy="0" rx="14" ry="5"/>
</g>
		<g transform="matrix(1 0 0 1 5.028 -24)" id="can">
<path style="stroke: none; stroke-width: 1; stroke-dasharray: none; stroke-linecap: butt; stroke-dashoffset: 0; stroke-linejoin: miter; stroke-miterlimit: 4; is-custom-font: none; font-file-url: none; fill: rgb(0,0,0); fill-rule: nonzero; opacity: 1;" transform=" translate(-37.0279, -8)" d="M 41 8 c 0 1.1 -1.36 2 -3 2 a 14.66 14.66 0 0 1 -4.38 -1.1 a 1 1 0 0 1 0 -1.8 A 14.66 14.66 0 0 1 38 6 C 39.64 6 41 6.9 41 8 Z" stroke-linecap="round"/>
</g>
		<g transform="matrix(1 0 0 1 0.0248 2.5)" id="can">
<path style="stroke: rgb(0,0,0); stroke-width: 2; stroke-dasharray: none; stroke-linecap: round; stroke-dashoffset: 0; stroke-linejoin: round; stroke-miterlimit: 4; is-custom-font: none; font-file-url: none; fill: none; fill-rule: nonzero; opacity: 1;" transform=" translate(-32.0248, -34.5)" d="M 18 8 V 9 A 2 2 0 0 1 17 10.76 a 1.92 1.92 0 0 0 -0.95 1.7 V 52.54 a 1.92 1.92 0 0 0 0.95 1.7 A 2 2 0 0 1 18 56 c 0 2.76 6.27 5 14 5 s 14 -2.24 14 -5 a 2 2 0 0 1 1 -1.76 a 1.92 1.92 0 0 0 1 -1.7 V 12.46 a 1.92 1.92 0 0 0 -1 -1.7 A 2 2 0 0 1 46 9 V 8" stroke-linecap="round"/>
</g>
		<g transform="matrix(1 0 0 1 0 -16.8)" id="can">
<path style="stroke: rgb(0,0,0); stroke-width: 2; stroke-dasharray: none; stroke-linecap: round; stroke-dashoffset: 0; stroke-linejoin: round; stroke-miterlimit: 4; is-custom-font: none; font-file-url: none; fill: none; fill-rule: nonzero; opacity: 1;" transform=" translate(-32, -15.2)" d="M 48 13.4 C 44.35 15.59 38.54 17 32 17 s -12.35 -1.41 -16 -3.6" stroke-linecap="round"/>
</g>
		<g transform="matrix(1 0 0 1 0 -5.0002)" id="can">
<path style="stroke: rgb(0,0,0); stroke-width: 2; stroke-dasharray: none; stroke-linecap: round; stroke-dashoffset: 0; stroke-linejoin: round; stroke-miterlimit: 4; is-custom-font: none; font-file-url: none; fill: none; fill-rule: nonzero; opacity: 1;" transform=" translate(-32, -26.9997)" d="M 16 26.69 A 18.69 18.69 0 0 0 25.33 29 C 34 29 34 25 42.67 25 a 18.48 18.48 0 0 1 5.33 0.68" stroke-linecap="round"/>
</g>
		<g transform="matrix(1 0 0 1 0 15.9998)" id="can">
<path style="stroke: rgb(0,0,0); stroke-width: 2; stroke-dasharray: none; stroke-linecap: round; stroke-dashoffset: 0; stroke-linejoin: round; stroke-miterlimit: 4; is-custom-font: none; font-file-url: none; fill: none; fill-rule: nonzero; opacity: 1;" transform=" translate(-32, -47.9997)" d="M 16 47.69 A 18.69 18.69 0 0 0 25.33 50 C 34 50 34 46 42.67 46 a 18.48 18.48 0 0 1 5.33 0.68" stroke-linecap="round"/>
</g>
</g>
</g>
<g transform="matrix(1 0 0 1 386.2245 316.8485)" style="" id="804346">
		
<path xml:space="preserve" font-family="Aladin" font-size="44" font-weight="normal" style="stroke: none; stroke-width: 0; stroke-dasharray: none; stroke-linecap: butt; stroke-dashoffset: 0; stroke-linejoin: miter; stroke-miterlimit: 4; is-custom-font: none; font-file-url: https://cdn.pixelied.com/user-assets/fonts/f47c6167-0690-40a7-92ee-d86431ad0a5a.ttf; fill: rgb(29,29,29); fill-rule: nonzero; opacity: 1; white-space: pre;" d="M-27.35 0.05L-27.35 0.05L-27.39-5.19Q-27.39-12.97-27.92-15.53L-27.92-15.53Q-28.01-15.83-28.01-16.01L-28.01-16.01Q-28.01-16.76-26.51-17.29Q-25.01-17.81-24.13-17.81Q-23.25-17.81-23.25-17.29L-23.25-17.29Q-23.25-17.24-23.34-16.80L-23.34-16.80Q-24.35-11.39-24.35 0.40L-24.35 0.40Q-24.35 8.45-23.43 11.97L-23.43 11.97Q-23.25 12.55-23.25 12.59L-23.25 12.59Q-23.25 13.51-25.28 14.11Q-27.30 14.70-28.14 14.70L-28.14 14.70Q-29.46 14.70-29.94 14.09L-29.94 14.09Q-30.91 12.85-33.09 7.16Q-35.27 1.46-36.89-3.47L-36.89-3.47L-38.57-8.40Q-38.65-8.62-38.79-8.62L-38.79-8.62Q-38.96-8.62-39.18-8.31L-39.18-8.31Q-39.40-4.22-39.40-0.13Q-39.40 3.97-39.34 6.17Q-39.27 8.37-39.18 9.51Q-39.09 10.65-39.01 11.34Q-38.92 12.02-38.85 12.33Q-38.79 12.63-38.79 12.77L-38.79 12.77Q-38.79 13.60-40.24 14.06Q-41.69 14.53-42.86 14.53Q-44.02 14.53-44.02 14.00L-44.02 14.00Q-44.02 13.73-43.89 13.34Q-43.76 12.94-43.58 12.33L-43.58 12.33Q-43.14 10.79-42.97 6.72Q-42.79 2.65-42.79-2.57Q-42.79-7.78-42.92-10.16L-42.92-10.16Q-43.14-14.03-43.71-15.35L-43.71-15.35Q-43.85-15.48-43.85-15.70L-43.85-15.70Q-43.85-16.41-41.51-17.07Q-39.18-17.73-37.88-17.73Q-36.59-17.73-36.37-17.68L-36.37-17.68Q-35.75-17.73-35.62-16.98L-35.62-16.98Q-34.34-12.36-32.03-6.11Q-29.72 0.14-27.92 3.44L-27.92 3.44Q-27.70 3.66-27.57 3.66L-27.57 3.66Q-27.35 3.66-27.35 0.05ZM-16.43 2.65L-16.43 2.65L-16.39 3.75Q-16.39 4.01-16.04 4.01L-16.04 4.01Q-14.63 3.88-13.57 3.28Q-12.52 2.69-11.99 1.94L-11.99 1.94Q-10.93 0.31-10.85-0.87L-10.85-0.87L-10.80-1.40Q-10.80-3.78-12.69-3.78L-12.69-3.78Q-14.10-3.78-14.98-2.55L-14.98-2.55Q-16.43-0.61-16.43 2.65ZM-6.84 8.50L-6.84 8.50Q-6.84 10.17-7.52 11.42Q-8.21 12.68-9.06 13.27Q-9.92 13.87-11.07 14.22L-11.07 14.22Q-12.52 14.66-13.84 14.66L-13.84 14.66Q-17.53 14.66-19.29 11.89Q-21.05 9.11-21.05 4.82Q-21.05 0.53-18.88-2.81Q-16.70-6.15-12.34-6.15L-12.34-6.15Q-8.38-6.15-6.97-3.38L-6.97-3.38Q-6.40-2.33-6.40-1.38Q-6.40-0.43-6.49 0.12Q-6.58 0.67-7.11 1.77Q-7.63 2.87-8.51 3.75Q-9.39 4.63-11.29 5.42Q-13.18 6.21-15.73 6.47L-15.73 6.47Q-16.08 6.47-16.08 6.78L-16.08 6.78Q-16.08 7.18-15.80 7.95Q-15.51 8.72-15.16 9.25L-15.16 9.25Q-14.19 10.48-12.30 10.48L-12.30 10.48Q-10.41 10.48-9.09 9.25L-9.09 9.25Q-8.38 8.59-7.94 7.62L-7.94 7.62Q-7.77 7.27-7.48 7.27Q-7.19 7.27-7.02 7.75Q-6.84 8.23-6.84 8.50ZM-0.24 2.65L-0.24 2.65L-0.20 3.75Q-0.20 4.01 0.15 4.01L0.15 4.01Q1.56 3.88 2.62 3.28Q3.67 2.69 4.20 1.94L4.20 1.94Q5.26 0.31 5.35-0.87L5.35-0.87L5.39-1.40Q5.39-3.78 3.50-3.78L3.50-3.78Q2.09-3.78 1.21-2.55L1.21-2.55Q-0.24-0.61-0.24 2.65ZM9.35 8.50L9.35 8.50Q9.35 10.17 8.67 11.42Q7.99 12.68 7.13 13.27Q6.27 13.87 5.13 14.22L5.13 14.22Q3.67 14.66 2.35 14.66L2.35 14.66Q-1.34 14.66-3.10 11.89Q-4.86 9.11-4.86 4.82Q-4.86 0.53-2.68-2.81Q-0.51-6.15 3.85-6.15L3.85-6.15Q7.81-6.15 9.22-3.38L9.22-3.38Q9.79-2.33 9.79-1.38Q9.79-0.43 9.70 0.12Q9.61 0.67 9.09 1.77Q8.56 2.87 7.68 3.75Q6.80 4.63 4.91 5.42Q3.01 6.21 0.46 6.47L0.46 6.47Q0.11 6.47 0.11 6.78L0.11 6.78Q0.11 7.18 0.40 7.95Q0.68 8.72 1.03 9.25L1.03 9.25Q2.00 10.48 3.89 10.48L3.89 10.48Q5.79 10.48 7.11 9.25L7.11 9.25Q7.81 8.59 8.25 7.62L8.25 7.62Q8.43 7.27 8.71 7.27Q9.00 7.27 9.17 7.75Q9.35 8.23 9.35 8.50ZM20.57-5.93L20.57-5.93Q21.36-5.93 22-5.74Q22.64-5.54 22.68-5.54L22.68-5.54L22.95-5.76L22.77-10.55Q22.68-11.79 22.24-12.67Q21.80-13.55 21.45-13.81L21.45-13.81L21.05-14.03Q20.79-14.21 20.79-14.43L20.79-14.43Q20.79-15.09 22.84-15.97Q24.88-16.85 26.03-16.85Q27.17-16.85 27.26-16.36L27.26-16.36Q27.48-14.87 27.48-10.66Q27.48-6.46 27.28-2.41Q27.08 1.63 27.08 6.76Q27.08 11.89 27.74 13.21L27.74 13.21Q27.92 13.51 27.92 13.78L27.92 13.78Q27.92 14.44 26.03 14.44L26.03 14.44Q22.42 14.44 22.42 12.72L22.42 12.72Q22.33 12.02 22.33 10.54Q22.33 9.07 22.62 5.04Q22.90 1.02 22.90-1.16Q22.90-3.34 20.72-3.34Q18.55-3.34 17.40-0.79Q16.26 1.77 16.26 4.32L16.26 4.32Q16.26 9.73 18.99 9.73L18.99 9.73Q19.38 9.73 19.76 9.58Q20.13 9.42 20.22 9.42L20.22 9.42Q20.57 9.42 20.77 9.86Q20.97 10.30 20.97 10.74L20.97 10.74Q20.97 12.24 19.78 13.27Q18.59 14.31 16.87 14.31L16.87 14.31Q14.23 14.31 12.89 12.00Q11.55 9.69 11.55 6.25L11.55 6.25Q11.55 1.90 13.62-1.84L13.62-1.84Q14.67-3.69 16.48-4.81Q18.28-5.93 20.57-5.93ZM32.10-5.63L39.71-5.54L44.51-5.67Q45.08-5.67 45.08-5.19L45.08-5.19Q45.08-4.31 42.31 0.01Q39.53 4.32 37.49 7.53Q35.44 10.74 35.44 11.40L35.44 11.40Q35.44 11.84 36.67 11.84Q37.91 11.84 38.83 11.47Q39.75 11.09 40.19 10.48L40.19 10.48Q40.94 9.42 40.94 8.54Q40.94 7.66 40.77 6.83L40.77 6.83Q40.77 6.30 41.73 6.21L41.73 6.21Q44.02 6.21 44.77 7.49L44.77 7.49Q45.34 8.50 45.34 9.55L45.34 9.55Q45.34 11.93 43.41 13.12Q41.47 14.31 38.83 14.31L38.83 14.31L33.81 14.17L29.37 14.26Q28.58 14.26 28.58 13.71Q28.58 13.16 30.01 10.83Q31.44 8.50 32.89 6.43L32.89 6.43L34.34 4.36Q38.04-1.45 38.28-1.91Q38.52-2.37 38.52-2.72L38.52-2.72Q38.52-3.34 37.25-3.34Q35.97-3.34 34.94-2.99Q33.90-2.63 33.24-2.13Q32.58-1.62 32.10-1.09L32.10-1.09Q31.22-0.13 31.22 0.14L31.22 0.14Q31.09 0.58 30.73 0.58L30.73 0.58L30.69 0.58Q30.07 0.58 30.07-0.17L30.07-0.17Q30.07-1.89 30.87-4.22L30.87-4.22L31.17-5.01Q31.35-5.63 32.10-5.63L32.10-5.63Z"/></g>
</svg>