<?xml version="1.0" standalone="no"?>
<!DOCTYPE svg PUBLIC "-//W3C//DTD SVG 20010904//EN"
 "http://www.w3.org/TR/2001/REC-SVG-20010904/DTD/svg10.dtd">
<svg version="1.0" xmlns="http://www.w3.org/2000/svg"
 width="512.000000pt" height="512.000000pt" viewBox="0 0 512.000000 512.000000"
 preserveAspectRatio="xMidYMid meet">

<g transform="translate(0.000000,512.000000) scale(0.100000,-0.100000)"
fill="#000000" stroke="none">
<path d="M1305 5095 c-24 -23 -25 -30 -25 -150 l0 -125 -80 -160 -80 -160 0
-2064 c0 -1335 4 -2082 10 -2116 15 -77 48 -138 110 -200 63 -63 123 -96 202
-110 35 -7 444 -9 1149 -8 l1094 3 56 23 c75 30 141 83 184 148 74 112 69 9
73 1389 1 682 0 1255 -3 1273 -12 65 -79 93 -123 52 -22 -20 -22 -25 -22 -314
l0 -294 -72 -12 c-404 -65 -633 -154 -1223 -474 -386 -210 -620 -299 -955
-365 -81 -16 -306 -51 -327 -51 -2 0 -3 236 -3 525 l0 524 33 5 c17 3 82 13
142 21 261 34 514 102 760 202 136 56 229 102 515 258 394 214 535 277 769
341 104 28 321 74 353 74 4 0 8 -38 8 -85 0 -72 3 -88 20 -105 25 -25 71 -26
101 -1 l24 19 3 665 3 664 -81 162 -80 162 0 113 c0 128 -10 168 -46 185 -18
8 -354 11 -1245 11 l-1220 0 -24 -25z m2375 -170 l0 -45 -1125 0 -1125 0 0 45
0 45 1125 0 1125 0 0 -45z m78 -280 l42 -85 -1240 0 c-682 0 -1240 2 -1240 5
0 3 18 41 40 85 l40 80 1158 0 1158 0 42 -85z m87 -700 l0 -460 -70 -13 c-280
-51 -507 -118 -720 -214 -66 -30 -248 -124 -405 -209 -157 -85 -332 -176 -389
-203 -257 -120 -558 -206 -856 -246 -44 -6 -92 -12 -107 -15 l-28 -4 0 914 0
915 1288 -2 1287 -3 0 -460z m0 -2566 l0 -744 -1287 -3 -1288 -2 0 300 c0 186
4 300 10 300 31 0 254 34 363 56 365 72 593 163 1084 431 385 210 539 277 788
343 118 32 303 70 320 66 7 -2 10 -259 10 -747z m1 -971 c-11 -116 -57 -191
-145 -235 -34 -17 -100 -18 -1126 -21 -1226 -3 -1150 -7 -1230 73 -50 49 -75
115 -75 197 l0 58 1291 0 1292 0 -7 -72z"/>
<path d="M1780 4231 c-211 -64 -241 -339 -48 -435 67 -34 135 -34 203 -2 60
28 87 56 114 116 26 56 26 132 2 186 -47 103 -171 165 -271 135z m118 -177
c29 -33 29 -78 -3 -109 -65 -65 -173 9 -133 91 27 58 93 66 136 18z"/>
<path d="M2480 3900 c-192 -66 -209 -334 -28 -424 158 -79 337 29 338 205 0
108 -70 199 -174 226 -64 17 -70 16 -136 -7z m138 -163 c50 -47 11 -137 -61
-137 -34 0 -67 26 -80 62 -11 31 13 79 47 94 36 15 62 10 94 -19z"/>
<path d="M1779 3590 c-97 -17 -183 -85 -228 -180 -34 -73 -35 -182 -4 -252 31
-69 94 -131 164 -163 53 -23 71 -27 138 -23 53 2 90 10 122 26 191 93 239 348
93 497 -74 77 -182 113 -285 95z m148 -173 c18 -12 42 -39 54 -60 56 -101 -22
-237 -138 -237 -84 0 -141 41 -164 120 -16 53 -4 105 34 146 59 64 145 76 214
31z"/>
</g>
</svg>
